<svg xmlns="http://www.w3.org/2000/svg" width="274.893" height="83.282" viewBox="0 0 274.893 83.282"><g transform="translate(-59.557 -394.43)"><g transform="translate(136.006 394.43)"><path d="M346.132,475.06a34.135,34.135,0,0,0-14.982,3.372l1.041,2.514a5.438,5.438,0,0,0,6.344,3.212,27.923,27.923,0,0,1,6.733-.864c5.492,0,7.923,2.274,7.923,5.569v4.079c-2.274-1.725-7.294-2.669-10.039-2.669-7.531,0-16.315,3.452-16.315,12.628,0,7.766,5.649,14.59,17.962,14.59,7.854,0,13.28-1.808,16.612-3.841A3.325,3.325,0,0,0,363,510.807V491.295C363,481.413,359.467,475.06,346.132,475.06Zm7.059,31.892a2,2,0,0,1-1.25,1.873,17.685,17.685,0,0,1-6.358,1.058c-5.02,0-8.157-2.666-8.157-6.825,0-3.53,3.53-5.489,7.451-5.489a14.44,14.44,0,0,1,7.374,2.208,2.042,2.042,0,0,1,.941,1.713Z" transform="translate(-326.837 -451.998)" fill="#fff"/><path d="M375.342,416.693h0a3.342,3.342,0,0,1-.636-4.75l8.243-10.487a3.342,3.342,0,0,1,4.641-.6l2.322,1.752a3.342,3.342,0,0,1,.116,5.244l-10.565,8.735A3.342,3.342,0,0,1,375.342,416.693Z" transform="translate(-360.504 -398.535)" fill="#fff"/><path d="M530.972,475.06a34.1,34.1,0,0,0-14.979,3.369l1.035,2.52a5.446,5.446,0,0,0,6.344,3.209,27.843,27.843,0,0,1,6.739-.867c5.486,0,7.92,2.277,7.92,5.572v4.079c-2.274-1.725-7.294-2.666-10.039-2.666-7.531,0-16.315,3.447-16.315,12.625,0,7.763,5.646,14.59,17.96,14.59,7.854,0,13.28-1.81,16.615-3.841a3.327,3.327,0,0,0,1.582-2.846v-19.51C547.833,481.41,544.307,475.06,530.972,475.06Zm7.059,31.889a2.012,2.012,0,0,1-1.253,1.879,17.739,17.739,0,0,1-6.355,1.053c-5.02,0-8.157-2.666-8.157-6.822,0-3.527,3.53-5.492,7.451-5.492a14.467,14.467,0,0,1,7.374,2.208,2.053,2.053,0,0,1,.941,1.713Z" transform="translate(-458.808 -451.998)" fill="#fff"/><path d="M471.765,397.442a10.244,10.244,0,0,0-7.268-3.012v64.316h10.277V404.707A10.242,10.242,0,0,0,471.765,397.442Z" transform="translate(-425.123 -394.43)" fill="#fff"/><path d="M696.082,475.05c-6.038,0-11.058,3.61-14.273,6.041-1.021-2.119-3.295-6.041-9.728-6.041A16.885,16.885,0,0,0,664.2,477.1a21.008,21.008,0,0,0-4.588,3.284,4.156,4.156,0,0,0-4.156-4.156h-6.118V509.7a6.605,6.605,0,0,0,6.6,6.6h3.67V488.385c1.256-1.567,4.862-4.313,8.238-4.313,3.841,0,6.115,1.959,6.115,6.587V509.7a6.605,6.605,0,0,0,6.6,6.6h3.673v-28c1.645-1.8,5.02-4.236,8.784-4.236s5.569,2.351,5.569,6.979V509.7a6.605,6.605,0,0,0,6.6,6.6h3.67V489.326C708.867,479.521,704.32,475.05,696.082,475.05Z" transform="translate(-557.094 -451.991)" fill="#fff"/><path d="M890.678,475.05c-12.471,0-21.961,9.49-21.961,21.335,0,11.764,9.49,21.1,21.727,21.1,12.156,0,21.727-9.493,21.727-21.1A21.292,21.292,0,0,0,890.678,475.05Zm-.312,34.432c-5.649,0-10.9-5.412-10.9-12.863,0-7.843,4.785-13.254,11.215-13.254,5.806,0,10.669,5.412,10.669,13.02C901.347,504.227,896.953,509.482,890.366,509.482Z" transform="translate(-713.725 -451.991)" fill="#fff"/><g transform="translate(92.243 68.414)"><path d="M652.269,648.85a5.448,5.448,0,0,0-2.932.844v9.668h1.216v-4.136a3.405,3.405,0,0,0,2.091.8,3.346,3.346,0,0,0,3.318-3.581A3.467,3.467,0,0,0,652.269,648.85Zm.3,6.127a2.611,2.611,0,0,1-2.019-.97v-3.65a3.23,3.23,0,0,1,1.6-.458,2.4,2.4,0,0,1,2.517,2.56A2.25,2.25,0,0,1,652.572,654.977Z" transform="translate(-649.337 -644.494)" fill="#fff"/><path d="M680.59,648.9a1.811,1.811,0,0,0-1.464,1.19v-1.024h-1.219v6.8h1.219v-4.316c.04-.595.512-1.493,1.3-1.493a1.45,1.45,0,0,1,.844.3l.483-1.147A2.139,2.139,0,0,0,680.59,648.9Z" transform="translate(-669.735 -644.53)" fill="#fff"/><path d="M696.461,648.85a3.588,3.588,0,1,0,3.627,3.6A3.587,3.587,0,0,0,696.461,648.85Zm-.04,6.17a2.448,2.448,0,0,1-2.351-2.531,2.4,2.4,0,0,1,2.38-2.6,2.427,2.427,0,0,1,2.351,2.557A2.359,2.359,0,0,1,696.421,655.02Z" transform="translate(-680.366 -644.494)" fill="#fff"/><path d="M723.171,643.623V641.26h-1.216v2.363H720.7v1.013h1.258v5.781h1.216v-5.781h1.673v-1.013Z" transform="translate(-700.286 -639.075)" fill="#fff"/><path d="M743.966,652.322c0-1.8-1.01-3.472-3.141-3.472a3.589,3.589,0,0,0,.069,7.176,3.77,3.77,0,0,0,2.863-1.035l-.429-.818a2.953,2.953,0,0,1-2.171.847,2.351,2.351,0,0,1-2.557-1.925,2.492,2.492,0,0,1-.043-.415h5.409Zm-5.366-.652a2.134,2.134,0,0,1,2.2-1.825,1.9,1.9,0,0,1,1.936,1.825Z" transform="translate(-712.16 -644.494)" fill="#fff"/><path d="M770.038,654.2a2.633,2.633,0,0,1-2.059.8,2.572,2.572,0,0,1-.029-5.131,2.672,2.672,0,0,1,1.8.718l.523-.884a3.563,3.563,0,0,0-2.337-.858,3.589,3.589,0,0,0-.109,7.176,3.285,3.285,0,0,0,2.669-1.093Zm-2.96,2.448-1.176,2.38h1.19l1.341-2.38Z" transform="translate(-731.416 -644.494)" fill="#fff"/><path d="M791.546,641.875a5.647,5.647,0,0,0-2.365.523l.4.915a4.89,4.89,0,0,1,1.894-.4c1.121,0,1.688.552,1.688,1.3v.844a3.052,3.052,0,0,0-1.976-.664c-1.233,0-2.809.649-2.809,2.2,0,1.287.927,2.46,2.96,2.46a4.578,4.578,0,0,0,3-.912V644.5C794.338,642.924,793.771,641.875,791.546,641.875Zm1.616,5.669a3.063,3.063,0,0,1-1.742.472c-1.176,0-1.785-.638-1.785-1.327,0-.666.566-1.261,1.716-1.261a2.771,2.771,0,0,1,1.811.692Zm.443-8.464a1.768,1.768,0,0,1-1.133.678c-.512,0-1-.609-1.619-.609a3.245,3.245,0,0,0-1.771,1.024l.566.664c.234-.209.692-.664,1.147-.664.569,0,1.067.595,1.633.595a2.31,2.31,0,0,0,1.619-1.024Z" transform="translate(-748.608 -637.518)" fill="#fff"/><path d="M817.764,648.85a3.588,3.588,0,1,0,3.624,3.6A3.587,3.587,0,0,0,817.764,648.85Zm-.043,6.17a2.448,2.448,0,0,1-2.351-2.531,2.4,2.4,0,0,1,2.38-2.6,2.427,2.427,0,0,1,2.351,2.557A2.359,2.359,0,0,1,817.721,655.02Z" transform="translate(-766.971 -644.494)" fill="#fff"/><path d="M858.609,649.48l-1.673,4a7.372,7.372,0,0,0-.36,1.024h-.014a6.77,6.77,0,0,0-.375-1.024l-1.7-4h-1.33l3.141,6.942h.526l3.1-6.942Z" transform="translate(-794.859 -644.944)" fill="#fff"/><path d="M885.036,652.322c0-1.8-1.01-3.472-3.138-3.472a3.589,3.589,0,0,0,.069,7.176,3.775,3.775,0,0,0,2.863-1.035l-.429-.818a2.958,2.958,0,0,1-2.171.847,2.353,2.353,0,0,1-2.56-1.925,2.557,2.557,0,0,1-.04-.415h5.406Zm-5.366-.652a2.137,2.137,0,0,1,2.2-1.825,1.9,1.9,0,0,1,1.936,1.825Z" transform="translate(-812.88 -644.494)" fill="#fff"/><path d="M907.105,639.08a.851.851,0,1,0,.844.858A.81.81,0,0,0,907.105,639.08Zm-.624,2.975v6.8h1.233v-6.8Z" transform="translate(-832.764 -637.518)" fill="#fff"/><path d="M922.668,654.2a2.632,2.632,0,0,1-2.059.8,2.572,2.572,0,0,1-.029-5.131,2.671,2.671,0,0,1,1.8.718l.523-.884a3.563,3.563,0,0,0-2.337-.858,3.589,3.589,0,0,0-.109,7.176,3.286,3.286,0,0,0,2.669-1.093Z" transform="translate(-840.389 -644.494)" fill="#fff"/><path d="M947.835,649.48v5.5a2.67,2.67,0,0,1-1.6.472,1.654,1.654,0,0,1-1.813-1.882V649.48h-1.23v4.37c0,1.756,1.23,2.626,2.96,2.626a4.172,4.172,0,0,0,2.917-.953V649.48Z" transform="translate(-859.138 -644.944)" fill="#fff"/><path d="M970.687,633.62v11.341h1.219V633.62Z" transform="translate(-878.773 -633.62)" fill="#fff"/><path d="M983.143,648.85a5.669,5.669,0,0,0-2.365.523l.4.915a4.908,4.908,0,0,1,1.9-.4c1.121,0,1.688.552,1.688,1.3v.844a3.06,3.06,0,0,0-1.979-.664c-1.23,0-2.806.649-2.806,2.2,0,1.287.927,2.46,2.96,2.46a4.578,4.578,0,0,0,3-.912v-3.635C985.938,649.9,985.371,648.85,983.143,648.85Zm1.619,5.669a3.063,3.063,0,0,1-1.742.472c-1.176,0-1.785-.638-1.785-1.327,0-.666.566-1.261,1.713-1.261a2.779,2.779,0,0,1,1.813.692Z" transform="translate(-885.406 -644.494)" fill="#fff"/><path d="M1009.88,648.9a1.815,1.815,0,0,0-1.467,1.19v-1.024H1007.2v6.8h1.216v-4.316c.043-.595.512-1.493,1.3-1.493a1.458,1.458,0,0,1,.844.3l.483-1.147A2.156,2.156,0,0,0,1009.88,648.9Z" transform="translate(-904.84 -644.53)" fill="#fff"/></g></g><g transform="translate(59.557 396.567)"><path d="M170.67,557.913v4.433a1.626,1.626,0,0,1-1.015,1.522,14.378,14.378,0,0,1-5.166.858c-4.076,0-6.621-2.165-6.621-5.54,0-2.866,2.866-4.456,6.052-4.456a11.7,11.7,0,0,1,5.987,1.793A1.653,1.653,0,0,1,170.67,557.913Z" transform="translate(-129.748 -511.017)" fill="#fff"/><path d="M110.249,401.9H77.265a17.711,17.711,0,0,0-17.708,17.711V452.6a17.709,17.709,0,0,0,17.708,17.711H99.638l10.5,10.5v-10.5h.112A17.71,17.71,0,0,0,127.96,452.6V419.611A17.712,17.712,0,0,0,110.249,401.9ZM90.611,419.493l6.693-8.515a2.717,2.717,0,0,1,3.77-.489l1.885,1.424a2.713,2.713,0,0,1,.094,4.256l-8.578,7.093a2.715,2.715,0,0,1-3.864-3.77Zm17.828,36.869a2.7,2.7,0,0,1-1.287,2.308c-2.706,1.65-7.111,3.121-13.489,3.121-10,0-14.584-5.543-14.584-11.847,0-7.454,7.133-10.257,13.249-10.257,2.225,0,6.3.764,8.152,2.165V438.54c0-2.674-1.976-4.519-6.436-4.519a22.761,22.761,0,0,0-5.466.7,4.413,4.413,0,0,1-5.151-2.609l-.847-2.042a27.7,27.7,0,0,1,12.168-2.74c10.826,0,13.692,5.16,13.692,13.186Z" transform="translate(-59.557 -401.9)" fill="#fff"/></g></g></svg>