<svg xmlns="http://www.w3.org/2000/svg" width="84.29" height="63.369" viewBox="0 0 84.29 63.369"><defs><style>.a{fill:#eb6013;}</style></defs><g transform="translate(-759.85 -324.311)"><path class="a" d="M759.85,368.04v4.01a5.81,5.81,0,0,1,0,11.62v4.01a9.82,9.82,0,1,0,0-19.64Z"/><path class="a" d="M797.76,326.03a.127.127,0,0,0-.01-.06.425.425,0,0,0-.02-.11c0-.02-.01-.04-.01-.06-.02-.05-.03-.1-.05-.15-.01-.02-.01-.03-.02-.05a.536.536,0,0,0-.05-.11.076.076,0,0,0-.02-.05,1.092,1.092,0,0,0-.08-.15c-.01-.01-.01-.02-.02-.04-.03-.04-.06-.09-.09-.13a.01.01,0,0,1-.01-.01l-.12-.15h-.01c0-.01-.01-.01-.01-.02a1.2,1.2,0,0,0-.12-.11l-.02-.02a1.126,1.126,0,0,0-.13-.1.179.179,0,0,0-.07-.05c-.02-.01-.04-.03-.06-.04a1.821,1.821,0,0,0-.31-.16c-.01,0-.01-.01-.02-.01a2,2,0,0,0-1.64.08l-.06.03c-.03.02-.05.03-.08.05l-33.91,20.56a2.027,2.027,0,0,0-.97,1.72,2.01,2.01,0,0,0,3.05,1.71l17-10.31-18.68,17.3-.57.54a2.564,2.564,0,0,0-.8,1.86,2.6,2.6,0,0,0,.75,1.82,2.554,2.554,0,0,0,1.81.75h19.46v7.48a1.972,1.972,0,0,0,.59,1.42l1.41,1.41v4.98h-9.78a2.028,2.028,0,0,0-2.04,1.97,2,2,0,0,0,2.01,2.04h11.82a2,2,0,0,0,2-2v-7.82a2.006,2.006,0,0,0-.59-1.42l-1.41-1.41v-8.66a2,2,0,0,0-2-2H766.09l27.68-25.64v24.04a4.485,4.485,0,0,0,1.89,8.49,2.036,2.036,0,0,0,2.12-2.04,1.993,1.993,0,0,0-2-1.97.47.47,0,1,1,.01-.94,2,2,0,0,0,1.99-2.01V326.19A.874.874,0,0,0,797.76,326.03Z"/><path class="a" d="M817.21,356.44a8.863,8.863,0,0,0-3.73,17.33,8.673,8.673,0,0,0,1.89.2,8.864,8.864,0,0,0,1.84-17.53Zm2.88,9.69a4.854,4.854,0,1,1-4.74-5.88,5.133,5.133,0,0,1,1.02.11A4.854,4.854,0,0,1,820.09,366.13Z"/><path class="a" d="M842.57,347.844c-2.61.564-5.362,1.264-7.83,1.9l7.811,1.645a2,2,0,0,1,1.589,1.959h0a2,2,0,0,1-2.413,1.959L824.39,351.66c-1.21.04-2.51.05-3.85.05-3.85.01-8.22.03-10.4.95-2.58,1.09-5.44,6.54-6.65,9.72a2,2,0,0,1-3.75-1.41c.38-1.01,3.85-9.89,8.83-12,2.92-1.24,7.52-1.26,11.96-1.27,1.36-.01,2.68-.01,3.87-.05a1.089,1.089,0,0,1,.18-.01,19.884,19.884,0,0,0,3.06-.29c1.4-.29,3.36-.79,5.64-1.38,2.618-.668,5.592-1.433,8.444-2.05a2,2,0,0,1,2.416,1.96v.011A1.993,1.993,0,0,1,842.57,347.844Z"/><path class="a" d="M844.14,370.4v.005a2,2,0,0,1-2.424,1.956L828.56,369.52a2,2,0,0,1,.84-3.92l13.16,2.839A2,2,0,0,1,844.14,370.4Z"/></g></svg>