<svg xmlns="http://www.w3.org/2000/svg" width="85.928" height="82.073" viewBox="0 0 85.928 82.073"><defs><style>.a{fill:#eb6013;}</style></defs><g transform="translate(-757.429 -219.14)"><path class="a" d="M818.36,301.213h-7.628a6.041,6.041,0,0,1-6.206-6v-10a1.329,1.329,0,1,1,2.658,0v10a3.413,3.413,0,0,0,3.548,3.341h7.628c1.856,0,3.055-1.311,3.055-3.341v-1.346a1.329,1.329,0,1,1,2.659,0v1.346A5.669,5.669,0,0,1,818.36,301.213Z"/><path class="a" d="M842.028,293.811H819.456a15.589,15.589,0,0,1-7.371-2.19l-.045-.026-1.82-1.093a16.926,16.926,0,0,1-8.869-14.771V270.65a12.879,12.879,0,0,1,3.042-8.114l.02-.023,4.349-5.129-.714-.153a1.329,1.329,0,0,1,.554-2.6l2.47.527a1.328,1.328,0,0,1,.908,1.9l-.734,1.451a1.363,1.363,0,0,1-.172.26l-4.623,5.452a10.246,10.246,0,0,0-2.441,6.429v5.081a14.271,14.271,0,0,0,7.511,12.452.479.479,0,0,1,.045.026l1.82,1.093a13,13,0,0,0,6.07,1.85h22.572a1.329,1.329,0,0,1,0,2.659Zm-28.367-41.205h-1.42a3.291,3.291,0,0,1-3.076-2.55l-.147-.534-.01-.035a1.115,1.115,0,0,0-1.14-.829h-6.632a2.005,2.005,0,0,0-2,2,1.329,1.329,0,1,1-2.659,0A4.667,4.667,0,0,1,801.236,246h6.632a3.8,3.8,0,0,1,3.717,2.831l.147.535.009.035c.078.312.356.547.5.547h.6l.505-.992.013-.024a25.422,25.422,0,0,1,22.4-13.542h6.26a1.329,1.329,0,0,1,0,2.659h-6.26a22.767,22.767,0,0,0-20.053,12.125l-.869,1.707A1.331,1.331,0,0,1,813.661,252.606Z"/><path class="a" d="M842.028,283.585H831.9a56.751,56.751,0,0,1-7.048-1.093,3.277,3.277,0,0,1-2.977-2.843,3.072,3.072,0,0,1,2.485-2.976,1.2,1.2,0,0,1,.135-.033,87.676,87.676,0,0,1,11.417-1.414h6.12a1.329,1.329,0,0,1,0,2.658h-6.12a85.22,85.22,0,0,0-10.858,1.357,1.165,1.165,0,0,0-.505.279,1.355,1.355,0,0,0,.8.36l.029.006a55.728,55.728,0,0,0,6.522,1.04h10.132a1.329,1.329,0,0,1,0,2.659Zm-24.936-5.952a3.632,3.632,0,0,1-1-.14l-5.673-1.621a7.823,7.823,0,0,1-4.886-4.105,1.329,1.329,0,0,1,2.392-1.16,5.166,5.166,0,0,0,3.225,2.709l5.672,1.621a1.018,1.018,0,0,0,1.091-.37l.9-1.215a1.012,1.012,0,0,0-.228-1.43l-9.083-6.427a1.329,1.329,0,1,1,1.535-2.17l9.084,6.427a3.67,3.67,0,0,1,.826,5.186l-.9,1.214A3.69,3.69,0,0,1,817.092,277.633Zm24.936-19.505c-8.411,0-14.922-.576-19.353-1.713a11.7,11.7,0,0,1-5.039-2.268,1.307,1.307,0,0,1-.263-.305,1.326,1.326,0,0,1-.141-1.109,19.439,19.439,0,0,1,6.6-9.484,1.33,1.33,0,0,1,1.635,2.1,16.761,16.761,0,0,0-5.386,7.3c1.586.9,6.753,2.822,21.951,2.822a1.329,1.329,0,0,1,0,2.659ZM817.7,254.2a1.326,1.326,0,0,0,.607.252A1.325,1.325,0,0,1,817.7,254.2Z"/><path class="a" d="M786.855,262.149a8.232,8.232,0,1,1,8.232-8.232A8.242,8.242,0,0,1,786.855,262.149Zm0-13.8a5.573,5.573,0,1,0,5.573,5.573A5.579,5.579,0,0,0,786.855,248.344Z"/><path class="a" d="M793.878,273.112a4.432,4.432,0,0,1-2.1-.531l-9.745-5.23a1.329,1.329,0,1,1,1.257-2.342l9.745,5.229a1.773,1.773,0,0,0,2.369-.661l7.525-12.9a1.425,1.425,0,0,0-1.586-2.109,1.413,1.413,0,0,0-.873.67l-5.556,9.844a1.329,1.329,0,0,1-1.774.525l-6.9-3.613a1.33,1.33,0,0,1,1.233-2.356l5.762,3.016,4.926-8.73a4.084,4.084,0,1,1,7.063,4.1L797.7,270.923A4.431,4.431,0,0,1,793.878,273.112Z"/><path class="a" d="M794.788,301.213a4.449,4.449,0,0,1-4.444-4.445V285.561l-10.566,3.386-.048.015a8.9,8.9,0,0,1-10.875-11.293l4.424-13.791a17.544,17.544,0,0,1,3.9-6.619l2.1-2.238a1.33,1.33,0,0,1,1.938,1.821l-2.1,2.238a14.873,14.873,0,0,0-3.306,5.61l-4.423,13.791a6.243,6.243,0,0,0,7.6,7.926l12.277-3.934A1.329,1.329,0,0,1,793,283.739v13.029a1.785,1.785,0,1,0,3.571,0V281.994a4.982,4.982,0,0,0-6.218-4.826l-9.09,2.855a1.33,1.33,0,0,1-.8-2.537l9.122-2.865.061-.017a7.641,7.641,0,0,1,9.581,7.39v14.774A4.45,4.45,0,0,1,794.788,301.213Z"/><path class="a" d="M775.036,301.033H761.674a4.245,4.245,0,0,1,0-8.49h9.549l.747-5.39a1.33,1.33,0,1,1,2.634.365l-.907,6.537a1.329,1.329,0,0,1-1.316,1.147H761.674a1.587,1.587,0,1,0,0,3.173h13.362a2.317,2.317,0,0,0,2.3-1.962l1.362-8.58a1.329,1.329,0,1,1,2.626.417l-1.362,8.58A4.963,4.963,0,0,1,775.036,301.033Z"/><path class="a" d="M790.551,249.419a1.33,1.33,0,0,1-1.039-2.158l4.894-6.141a7.061,7.061,0,0,1,7.658-2.359l6.85,2.122a1.33,1.33,0,0,1-.787,2.54l-6.85-2.122a4.419,4.419,0,0,0-4.792,1.476l-4.893,6.141A1.33,1.33,0,0,1,790.551,249.419Z"/><path class="a" d="M810.3,250.5a1.329,1.329,0,0,1-1.3-1.04l-6.4-28.7a1.329,1.329,0,1,1,2.595-.579l6.4,28.7a1.33,1.33,0,0,1-1.3,1.619Z"/></g></svg>