<svg xmlns="http://www.w3.org/2000/svg" width="87.28" height="70.623" viewBox="0 0 87.28 70.623"><defs><style>.a{fill:#eb6013;}</style></defs><g transform="translate(-885.281 -294.93)"><path class="a" d="M971.076,358.266H948.8a9.845,9.845,0,0,1-9.846-9.845v-5.957a9.849,9.849,0,0,1,2.469-6.521l.423-.479h-5.752a1.493,1.493,0,0,1-1.487-1.5,6.641,6.641,0,0,1,6.632-6.617H949v2.974H941.24a3.664,3.664,0,0,0-3.343,2.172h7.247a1.487,1.487,0,0,1,1.115,2.472l-2.608,2.952a6.87,6.87,0,0,0-1.722,4.55v5.957a6.872,6.872,0,0,0,6.872,6.872h22.275a1.485,1.485,0,0,1,1.485,1.485v0A1.485,1.485,0,0,1,971.076,358.266Z"/><path class="a" d="M971.072,336.929l-15.8-.02c-7.684-1.3-8.071-5.159-8.089-5.6,0-4.118,2.969-9.808,5.45-13.854a6.77,6.77,0,0,1,5.776-3.218h12.663a1.486,1.486,0,0,1,1.485,1.486v0a1.485,1.485,0,0,1-1.485,1.486H958.413a3.827,3.827,0,0,0-3.256,1.824c-3.13,5.107-4.945,9.5-5,12.1.084.277.792,2,5.49,2.821h15.424a1.486,1.486,0,0,1,1.486,1.486h0A1.487,1.487,0,0,1,971.072,336.929Z"/><path class="a" d="M957.6,365.553h-1.416a6.744,6.744,0,0,1-6.736-6.737v-2.037h2.974v2.037a3.767,3.767,0,0,0,3.762,3.763H957.6a3.767,3.767,0,0,0,3.763-3.763v-2.037h2.973v2.037A6.744,6.744,0,0,1,957.6,365.553Z"/><path class="a" d="M971.074,353.732H963.24a1.487,1.487,0,0,1-1.487-1.487V346a1.487,1.487,0,0,1,1.487-1.487h7.836a1.485,1.485,0,0,1,1.485,1.486v0a1.486,1.486,0,0,1-1.485,1.486h-6.349v3.275h6.347a1.486,1.486,0,0,1,1.486,1.486v0A1.487,1.487,0,0,1,971.074,353.732Z"/><rect class="a" width="4.794" height="2.974" rx="1.487" transform="matrix(0.465, -0.885, 0.885, 0.465, 945.125, 342.113)"/><path class="a" d="M917.46,325.587a1.486,1.486,0,0,1-2.094-.19l-8.114-9.724a1.487,1.487,0,0,1,1.438-2.41l12.932,2.627,5.794-12.121a1.487,1.487,0,0,1,2.715.072l5.352,12.914,12.512-4.245a1.486,1.486,0,0,1,1.8,2.076l-4.641,9.229a1.487,1.487,0,0,1-2,.66h0a1.487,1.487,0,0,1-.661-2l3.012-5.988-10.394,3.527a1.486,1.486,0,0,1-1.851-.839l-4.608-11.119L923.8,318.219a1.483,1.483,0,0,1-1.637.816l-9.919-2.015,5.4,6.472a1.486,1.486,0,0,1-.19,2.094Z"/><rect class="a" width="2.974" height="5.536" rx="1.487" transform="matrix(0.83, -0.558, 0.558, 0.83, 913.651, 304.286)"/><rect class="a" width="5.536" height="2.974" rx="1.487" transform="matrix(0.558, -0.83, 0.83, 0.558, 937.987, 307.223)"/><rect class="a" width="2.974" height="4.939" rx="1.487" transform="translate(927.271 294.93)"/><path class="a" d="M931.7,358.48h-1.729a1.487,1.487,0,0,1-1.487-1.487h0a1.487,1.487,0,0,1,1.487-1.487h1.119l1.36-1.342a5.422,5.422,0,0,0,1.417-5.306l-1.257-4.546a5.42,5.42,0,0,0-3.879-3.807L914.673,336.9a17.769,17.769,0,0,1-6.007-2.82l-7.588-5.493a14.811,14.811,0,0,0-8.683-2.812h-5.627a1.487,1.487,0,0,1-1.487-1.487h0a1.487,1.487,0,0,1,1.487-1.487H892.4a17.781,17.781,0,0,1,10.425,3.377l7.588,5.493a14.785,14.785,0,0,0,5,2.348l14.058,3.608a8.4,8.4,0,0,1,6.007,5.9l1.257,4.546a8.4,8.4,0,0,1-2.2,8.216l-1.793,1.77A1.486,1.486,0,0,1,931.7,358.48Z"/><path class="a" d="M906.084,358.48H886.768a1.487,1.487,0,0,1-1.487-1.487h0a1.487,1.487,0,0,1,1.487-1.487h19.316Z"/><path class="a" d="M917.551,365.553a9.109,9.109,0,1,1,9.11-9.11A9.12,9.12,0,0,1,917.551,365.553Zm0-15.246a6.136,6.136,0,1,0,6.136,6.136A6.144,6.144,0,0,0,917.551,350.307Z"/><path class="a" d="M901.416,343.043H887.11a1.486,1.486,0,0,1-1.486-1.487V331.319a1.486,1.486,0,0,1,1.486-1.486h4.4A11.4,11.4,0,0,1,902.9,341.222v.334A1.487,1.487,0,0,1,901.416,343.043ZM888.6,340.069h11.254a8.429,8.429,0,0,0-8.337-7.263H888.6Z"/></g></svg>