<svg xmlns="http://www.w3.org/2000/svg" width="82.48" height="76.997" viewBox="0 0 82.48 76.997"><defs><style>.a{fill:#eb6013;}</style></defs><g transform="translate(-636.684 -223.651)"><path class="a" d="M675.182,223.651a38.5,38.5,0,0,0,0,77,1.551,1.551,0,0,0,1.549-1.549v-5.775a1.549,1.549,0,0,0-3.1,0v4.191A35.557,35.557,0,0,1,639.816,263.7h4.191a1.549,1.549,0,1,0,0-3.1h-4.191a35.557,35.557,0,0,1,33.817-33.817v4.191a1.549,1.549,0,0,0,3.1,0v-4.191A35.557,35.557,0,0,1,710.548,260.6h-4.191a1.549,1.549,0,1,0,0,3.1h5.774a1.551,1.551,0,0,0,1.549-1.549A38.541,38.541,0,0,0,675.182,223.651Z"/><path class="a" d="M677.162,262.037a1.721,1.721,0,0,0-.606-1.176l-12.389-10.482a1.727,1.727,0,1,0-2.232,2.637L674.324,263.5a1.714,1.714,0,0,0,.444.273h0a1.77,1.77,0,0,0,.258.085,1.729,1.729,0,0,0,2.135-1.821Z"/><path class="a" d="M688.02,243.24a1.731,1.731,0,0,0-2.4.477l-11.7,17.5a1.728,1.728,0,1,0,2.873,1.92l11.7-17.5A1.73,1.73,0,0,0,688.02,243.24Z"/><circle class="a" cx="2.55" cy="2.55" r="2.55" transform="translate(672.632 259.599)"/><path class="a" d="M680.837,291.759h0a1.638,1.638,0,0,1,.848-1.443,31.863,31.863,0,0,0,7.121-5.628c2.709-2.992,3.842-5.354,3.842-8.063a3.508,3.508,0,0,0-3.433-3.716,6.05,6.05,0,0,0-3.682,1.378,1.694,1.694,0,0,1-2.4-.333h0a1.7,1.7,0,0,1,.315-2.355,10.186,10.186,0,0,1,6.179-2.25,7.232,7.232,0,0,1,7.559,7.276c0,4.283-3.559,8.063-5.323,9.89a42.579,42.579,0,0,1-3.685,3.338l8.2-.026a1.653,1.653,0,0,1,1.659,1.654v.278a1.654,1.654,0,0,1-1.654,1.654H682.491A1.655,1.655,0,0,1,680.837,291.759Z"/><path class="a" d="M711.668,291.916V289.57h-9.249a2.089,2.089,0,0,1-2.089-2.089h0a2.089,2.089,0,0,1,.37-1.187l11.6-16.786a1.9,1.9,0,0,1,1.563-.82h0a1.9,1.9,0,0,1,1.9,1.9v15.579l1.677-.015a1.708,1.708,0,0,1,1.724,1.708h0a1.709,1.709,0,0,1-1.708,1.709h-1.693v2.346a1.655,1.655,0,0,1-1.654,1.654h-.786A1.655,1.655,0,0,1,711.668,291.916Zm0-15.322-6.519,9.638,6.519-.064Z"/></g></svg>