<svg xmlns="http://www.w3.org/2000/svg" width="60.263" height="70.697" viewBox="0 0 60.263 70.697"><defs><style>.a{fill:#eb6013;}</style></defs><path class="a" d="M698.258,381.2a19.574,19.574,0,0,0,7.021-6.2c2.768-3.987,4.6-9.605,4.881-17.442.331-9.192-3.715-16.895-12.406-20.421.216,5.208-2.584,9.222-4.961,13.624-1.193-10.371-4.557-30.757-17.7-30.982,1.675,6.8-.836,11.764-5.494,16.588-6.3,6.521-12.7,13.782-12.683,23.382.019,10.559,5.814,19.009,15.689,22.7a26.376,26.376,0,0,1-.557-3.15c-.814-6.992,2.671-12.862,7.017-18,3.349-3.961,3.539-5.969,3.65-10.043a.974.974,0,0,1,1.562-.75c2.947,2.237,6.242,4.986,5.581,8.952a44.2,44.2,0,0,0-.845,7.218c.026,1.057.3,2.516,1.206.808a21.32,21.32,0,0,0,1.329-5.022.973.973,0,0,1,1.77-.358c3.978,6.064,6.589,11.182,4.944,19.1Zm9.9-4.2c-3.854,5.551-8.074,7.5-13.687,9.5a.975.975,0,0,1-1.232-1.273c2.176-5.632,3.125-9.965.149-16.259-2.4,4.671-7.729,3.5-7.873-2.211a45.8,45.8,0,0,1,.886-7.876,3.187,3.187,0,0,0-.716-2.365,16.152,16.152,0,0,1-3.951,7.043c-3.664,4.333-6.9,9.417-6.208,15.341a21.537,21.537,0,0,0,2.052,6.926.977.977,0,0,1-1.162,1.33c-13.578-3.836-22.969-11.682-23-27.4-.018-10.705,6.618-18.518,13.656-25.807,5.4-5.592,6.046-9.141,3.744-16.013a.966.966,0,0,1,.78-1.267c13.427-1.648,19.582,9.087,22.663,20.832a18.149,18.149,0,0,0-.6-3.763.975.975,0,0,1,1.249-1.147c12.27,3.852,19.241,11.236,18.741,25.1-.309,8.582-2.372,14.818-5.5,19.32Z" transform="translate(-653.417 -316.491)"/></svg>